<svg width="61" height="61" viewBox="0 0 61 61" fill="none" xmlns="http://www.w3.org/2000/svg"><path d="M51 0H10C4.477 0 0 4.477 0 10v41c0 5.523 4.477 10 10 10h41c5.523 0 10-4.477 10-10V10c0-5.523-4.477-10-10-10Z" fill="#D3EDE0"/><path d="M34.732 34.732c1.536-1.535 2.41-3.535 2.41-5.732 0-4.843-4.157-9-9-9-4.842 0-9 4.157-9 9s4.158 9 9 9c2.198 0 4.212-.653 5.884-1.776l7.474 7.474 2.198-2.198-7.474-7.474A10.476 10.476 0 0 0 38 28.142c0-4.842-4.157-9-9.858-9-5.7 0-9.857 4.158-9.857 9 0 4.843 4.157 9 9 9 2.198 0 4.212-.652 5.883-1.776l1.564-.634Z" fill="#21A365"/></svg>