<svg width="61" height="61" viewBox="0 0 61 61" fill="none" xmlns="http://www.w3.org/2000/svg">
<path d="M51 0H10C4.47715 0 0 4.47715 0 10V51C0 56.5228 4.47715 61 10 61H51C56.5228 61 61 56.5228 61 51V10C61 4.47715 56.5228 0 51 0Z" fill="#FFE2E4"/>
<path d="M34 42V45H16V42H34ZM34.879 13.029L46.546 24.696L44.425 26.82L42.835 26.289L39.1195 30L47.605 38.4855L45.484 40.6065L37 32.121L33.394 35.727L33.8185 37.425L31.696 39.546L20.029 27.879L22.1515 25.758L23.8465 26.181L33.2875 16.7415L32.758 15.1515L34.879 13.029ZM35.9395 18.333L25.333 28.938L30.6355 34.242L41.242 23.637L35.9395 18.333Z" fill="#FE1C1D"/>
</svg>
