<svg width="61" height="61" viewBox="0 0 40 40" fill="none" xmlns="http://www.w3.org/2000/svg"><rect width="40" height="40" rx="8" fill="#D3EDE0"/><path d="M16.733 7.867h6.534c1.215 0 2.254.78 2.64 1.866H28.4a1.867 1.867 0 0 1 1.864 1.774l.003.093v18.667a1.867 1.867 0 0 1-1.774 1.864l-.093.002H11.6a1.866 1.866 0 0 1-1.864-1.773l-.003-.093V11.6a1.867 1.867 0 0 1 1.774-1.864l.093-.003h2.494a2.807 2.807 0 0 1 2.64-1.866Zm-.93 2.862a.926.926 0 0 0 0-.124.94.94 0 0 1 .93-.872h6.534a.94.94 0 0 1 .933.934.94.94 0 0 1-.933.933h-6.534a.94.94 0 0 1-.93-.871Z" fill="#21A365"/><path d="M23.814 18.133a.933.933 0 1 1 1.32 1.32l-5.407 5.407a.933.933 0 0 1-1.32 0l-3.074-3.074a.933.933 0 0 1 1.32-1.32l2.414 2.413 4.747-4.746Z"/></svg>
