<svg height="61" viewBox="0 0 24 24" width="61" xmlns="http://www.w3.org/2000/svg" data-name="Layer 1"><path d="M16.5 14.5A1.5 1.5 0 0 1 15 16h-1.5v1.5a1.5 1.5 0 0 1-3 0V16H9a1.5 1.5 0 0 1 0-3h1.5v-1.5a1.5 1.5 0 0 1 3 0V13H15a1.5 1.5 0 0 1 1.5 1.5zM22 8.157V18.5a5.506 5.506 0 0 1-5.5 5.5h-9A5.506 5.506 0 0 1 2 18.5v-13A5.506 5.506 0 0 1 7.5 0h6.343a5.464 5.464 0 0 1 3.889 1.611l2.657 2.657A5.464 5.464 0 0 1 22 8.157zM19 18.5V9h-4a2 2 0 0 1-2-2V3H7.5A2.5 2.5 0 0 0 5 5.5v13A2.5 2.5 0 0 0 7.5 21h9a2.5 2.5 0 0 0 2.5-2.5z" fill="#21A365"/></svg>